<svg xmlns="http://www.w3.org/2000/svg" width="70" height="70" viewBox="0 0 70 70">
  <g id="Groupe_38" data-name="Groupe 38" transform="translate(-734 -631)">
    <circle id="Ellipse_9" data-name="Ellipse 9" cx="35" cy="35" r="35" transform="translate(734 631)" fill="#f6f4fd"/>
    <g id="phone-call_1_" data-name="phone-call (1)" transform="translate(754 651)">
      <g id="Groupe_34" data-name="Groupe 34" transform="translate(0)">
        <g id="Groupe_33" data-name="Groupe 33" transform="translate(0)">
          <path id="Tracé_24" data-name="Tracé 24" d="M248.566,4.686A15.9,15.9,0,0,0,237.252,0a1.25,1.25,0,1,0,0,2.5,13.5,13.5,0,0,1,13.5,13.5,1.25,1.25,0,1,0,2.5,0A15.9,15.9,0,0,0,248.566,4.686Z" transform="translate(-223.252)" fill="#B85941"/>
          <path id="Tracé_25" data-name="Tracé 25" d="M19.008,78.553a1.16,1.16,0,0,0-1.641,0L15.7,80.216a15.015,15.015,0,0,1-4.6-4.6l1.663-1.663a1.161,1.161,0,0,0,0-1.641L6.207,65.753a1.16,1.16,0,0,0-1.641,0L.851,69.468a2.891,2.891,0,0,0-.8,2.6c1.757,9.01,10.192,17.445,19.2,19.2a2.891,2.891,0,0,0,2.6-.8l3.715-3.715a1.161,1.161,0,0,0,0-1.641Zm1.208,10.279a.574.574,0,0,1-.515.161C11.6,87.414,3.91,79.717,2.331,71.624a.574.574,0,0,1,.161-.515h0l2.894-2.894,4.923,4.923L8.833,74.615a1.16,1.16,0,0,0-.2,1.377,17.007,17.007,0,0,0,6.7,6.7,1.16,1.16,0,0,0,1.377-.2l1.477-1.477,4.923,4.923Z" transform="translate(0 -61.325)" fill="#B85941"/>
        </g>
      </g>
    </g>
  </g>
</svg>
