<svg xmlns="http://www.w3.org/2000/svg" width="70" height="70" viewBox="0 0 70 70">
  <g id="Groupe_39" data-name="Groupe 39" transform="translate(-825 -616)">
    <circle id="Ellipse_10" data-name="Ellipse 10" cx="35" cy="35" r="35" transform="translate(825 616)" fill="#f6f4fd"/>
    <g id="letter" transform="translate(845 636)">
      <path id="Tracé_21" data-name="Tracé 21" d="M28.83,7.953l-3.283-.005V1.172A1.172,1.172,0,0,0,24.375,0H5.625A1.172,1.172,0,0,0,4.453,1.172V7.945H1.172A1.172,1.172,0,0,0,0,9.117V28.828A1.172,1.172,0,0,0,1.172,30H28.828A1.174,1.174,0,0,0,30,28.828V9.125a1.172,1.172,0,0,0-1.17-1.172ZM6.8,2.344H23.2V16.122L15,23.074,6.8,16.122ZM2.344,10.289H4.453v3.847L2.344,12.348Zm0,5.131,6.419,5.44L2.344,26.3ZM4.367,27.657,10.575,22.4,14.242,25.5a1.172,1.172,0,0,0,1.515,0L19.425,22.4l6.208,5.261ZM27.656,26.3l-6.419-5.44,6.419-5.44Zm0-13.951-2.109,1.788V10.291l2.109,0Zm0,0" transform="translate(0)" fill="#B85941"/>
      <path id="Tracé_22" data-name="Tracé 22" d="M165.578,103.156H176.94a1.578,1.578,0,0,0,0-3.156H165.578a1.578,1.578,0,1,0,0,3.156Zm0,0" transform="translate(-156.259 -94.312)" fill="#B85941"/>
      <path id="Tracé_23" data-name="Tracé 23" d="M178.518,201.578A1.578,1.578,0,0,0,176.94,200H165.578a1.578,1.578,0,1,0,0,3.156H176.94A1.578,1.578,0,0,0,178.518,201.578Zm0,0" transform="translate(-156.259 -188.625)" fill="#B85941"/>
    </g>
  </g>
</svg>
