<svg id="linkedin" xmlns="http://www.w3.org/2000/svg" width="16.38" height="16.375" viewBox="0 0 16.38 16.375">
  <path id="Tracé_15" data-name="Tracé 15" d="M19.528,19.269h0V13c0-3.066-.66-5.427-4.244-5.427a3.721,3.721,0,0,0-3.351,1.842h-.05V7.86h-3.4V19.268h3.539V13.619c0-1.487.282-2.926,2.124-2.926,1.815,0,1.842,1.7,1.842,3.021v5.554Z" transform="translate(-3.152 -2.893)" fill="#08297e"/>
  <path id="Tracé_16" data-name="Tracé 16" d="M.4,7.977H3.939V19.385H.4Z" transform="translate(-0.114 -3.01)" fill="#08297e"/>
  <path id="Tracé_17" data-name="Tracé 17" d="M2.052,0A2.062,2.062,0,1,0,4.1,2.052,2.053,2.053,0,0,0,2.052,0Z" fill="#08297e"/>
</svg>
