<svg xmlns="http://www.w3.org/2000/svg" viewBox="0 0 248.88 84.98"><defs><style>.cls-1{fill:#404040;}.cls-2,.cls-3{fill:#c45911;}.cls-3{font-size:16.54px;font-family:Andalus;letter-spacing:0.21em;}.cls-4{letter-spacing:0.21em;}.cls-5{letter-spacing:0.19em;}.cls-6{letter-spacing:0.19em;}.cls-7{letter-spacing:0.2em;}.cls-8{letter-spacing:0.22em;}.cls-9{letter-spacing:0.23em;}.cls-10{letter-spacing:0.2em;}.cls-11{letter-spacing:0.22em;}.cls-12{letter-spacing:0.2em;}</style></defs><g id="Calque_2" data-name="Calque 2"><g id="Calque_1-2" data-name="Calque 1"><path class="cls-1" d="M237.83,78.46c-19.56.35-39.13.53-58.69.65l-14.68.08-14.67.06-29.35,0-29.35,0-14.67-.06-14.67-.08c-19.57-.12-39.13-.3-58.7-.65a.1.1,0,0,1-.1-.1.12.12,0,0,1,.1-.11q29.36-.51,58.7-.65l14.67-.08,14.67-.06,29.35,0,29.35,0,14.67.06,14.68.08q29.34.18,58.69.65a.11.11,0,0,1,.1.11A.1.1,0,0,1,237.83,78.46Z"/><polygon class="cls-1" points="84.6 19.73 67.52 19.73 67.52 32.91 84.5 32.91 90.93 26.33 85.1 20.25 84.86 20 84.6 19.73"/><path class="cls-1" d="M40.75,25.34c.1-1.57.2-3,.31-4.24s.16-2.93.16-5A32.43,32.43,0,0,0,40,6Q38.24,1,34.39,1H2.75V13.64H28.11v5.1H15.47V16.15H2.75V51.64H38.47A10.45,10.45,0,0,0,49,41.12c0-2.35-1-5.18-3.14-8.48C44.13,30.23,42.42,27.8,40.75,25.34ZM15.47,39V31.39H29.52L34.39,39Z"/><polygon class="cls-1" points="84.32 1 52.29 1 52.29 51.64 84.32 51.64 92.8 39 65.01 39 65.01 13.64 92.8 13.64 84.32 1"/><path class="cls-1" d="M189.54,34.45a6,6,0,0,0,2-4.32V7.28q0-1.89-2.2-4.08T185.22,1H151V13.64h27.88V23.77H163.63V16.15H151V51.64h12.65V36.41h6.51L180,51.64h15l-9.81-15.23A6,6,0,0,0,189.54,34.45Z"/><path class="cls-1" d="M236.29,2.85A6.05,6.05,0,0,0,231.86,1H204a6.15,6.15,0,0,0-4.48,1.88,6.07,6.07,0,0,0-1.88,4.4v6.36h40.52V7.28A6,6,0,0,0,236.29,2.85Z"/><path class="cls-1" d="M225.5,39H210.34V16.15H197.62V45.28A6.42,6.42,0,0,0,204,51.64h27.88a6,6,0,0,0,4.47-1.88,6.28,6.28,0,0,0,1.81-4.48V16.15H225.5Z"/><path class="cls-2" d="M133.57,31.88,116,4.81A9.53,9.53,0,0,0,107.54,0a9.72,9.72,0,0,0-7.12,3,9.73,9.73,0,0,0-3,7.13V51.66h12.9V19.78l17.54,27.08a10.08,10.08,0,0,0,18.66-5.29V0h-13Z"/><text class="cls-3" transform="translate(0 74.52) scale(2.1 1.5)">I<tspan class="cls-4" x="8.45" y="0">N</tspan><tspan class="cls-5" x="23.17" y="0">D</tspan><tspan class="cls-6" x="38.04" y="0">U</tspan><tspan class="cls-7" x="52.42" y="0">S</tspan><tspan class="cls-8" x="63.1" y="0">T</tspan><tspan class="cls-9" x="75.29" y="0">R</tspan><tspan class="cls-10" x="87.98" y="0">I</tspan><tspan class="cls-11" x="96.3" y="0">E</tspan><tspan class="cls-12" x="107.93" y="0">S</tspan></text></g></g></svg>