<svg xmlns="http://www.w3.org/2000/svg" width="28" height="28" viewBox="0 0 28 28">
  <g id="Groupe_6" data-name="Groupe 6" transform="translate(-677 -570)">
    <g id="Groupe_3" data-name="Groupe 3">
      <g id="Tracé_32" data-name="Tracé 32" transform="translate(677 570)" fill="#b85941">
        <path d="M 14 27 C 10.52756977081299 27 7.26298999786377 25.64776039123535 4.807610034942627 23.19239044189453 C 2.352240085601807 20.73700904846191 1 17.4724292755127 1 14 C 1 10.52756977081299 2.352240085601807 7.26298999786377 4.807610034942627 4.807610034942627 C 7.26298999786377 2.352240085601807 10.52756977081299 1 14 1 C 17.4724292755127 1 20.73700904846191 2.352240085601807 23.19239044189453 4.807610034942627 C 25.64776039123535 7.26298999786377 27 10.52756977081299 27 14 C 27 17.4724292755127 25.64776039123535 20.73700904846191 23.19239044189453 23.19239044189453 C 20.73700904846191 25.64776039123535 17.4724292755127 27 14 27 Z" stroke="none"/>
        <path d="M 14 2 C 10.79467964172363 2 7.781219482421875 3.248220443725586 5.514720916748047 5.514720916748047 C 3.248220443725586 7.781219482421875 2 10.79467964172363 2 14 C 2 17.20532035827637 3.248220443725586 20.21878051757813 5.514720916748047 22.48527908325195 C 7.781219482421875 24.75177955627441 10.79467964172363 26 14 26 C 17.20532035827637 26 20.21878051757813 24.75177955627441 22.48527908325195 22.48527908325195 C 24.75177955627441 20.21878051757813 26 17.20532035827637 26 14 C 26 10.79467964172363 24.75177955627441 7.781219482421875 22.48527908325195 5.514720916748047 C 20.21878051757813 3.248220443725586 17.20532035827637 2 14 2 M 14 0 C 21.73199081420898 0 28 6.268009185791016 28 14 C 28 21.73199081420898 21.73199081420898 28 14 28 C 6.268009185791016 28 0 21.73199081420898 0 14 C 0 6.268009185791016 6.268009185791016 0 14 0 Z" stroke="none" fill="#b85941"/>
      </g>
    </g>
    <g id="Groupe_5" data-name="Groupe 5" transform="translate(684 580)">
      <path id="Tracé_1" data-name="Tracé 1" d="M14.4,135.085h0l-2.971-2.956a.569.569,0,0,0-.8.807l2,1.984H.581a.569.569,0,1,0,0,1.137H12.622l-2,1.984a.569.569,0,0,0,.8.807l2.971-2.956h0A.571.571,0,0,0,14.4,135.085Z" transform="translate(-0.012 -131.962)" fill="#fff"/>
    </g>
  </g>
</svg>
