<svg xmlns="http://www.w3.org/2000/svg" width="330.5" height="154.4" viewBox="0 0 330.5 154.4">
  <g id="Groupe_3616" data-name="Groupe 3616" transform="translate(17771 12521)">
    <g id="Groupe_31" transform="translate(-21382.301 -15465.2)">
      <g id="Groupe_30">
        <g id="Groupe_29" transform="translate(-23)">
          <g id="Groupe_3613" data-name="Groupe 3613">
            <path id="Tracé_52442" data-name="Tracé 52442" d="M3648,3050.6a6.35,6.35,0,0,1,2.8,2.3,6.98,6.98,0,0,1,0,7.2,5.844,5.844,0,0,1-2.8,2.3,11,11,0,0,1-4.3.8h-4.3v5.5h-3.5v-18.9h7.8A8.494,8.494,0,0,1,3648,3050.6Zm-1,8.6a3.356,3.356,0,0,0,1.2-2.8,3.489,3.489,0,0,0-1.2-2.8,5.219,5.219,0,0,0-3.5-1h-4.1v7.5h4.1A4.593,4.593,0,0,0,3647,3059.2Z" fill="#333"/>
            <path id="Tracé_52443" data-name="Tracé 52443" d="M3663.1,3054.1v3.2a2.2,2.2,0,0,0-.8-.1,4.5,4.5,0,0,0-3.1,1.1,4.859,4.859,0,0,0-1.1,3.3v7h-3.4v-14.4h3.2v2.1C3659,3054.8,3660.7,3054.1,3663.1,3054.1Z" fill="#333"/>
            <path id="Tracé_52444" data-name="Tracé 52444" d="M3668.4,3067.9a6.176,6.176,0,0,1-2.7-2.6,7.72,7.72,0,0,1,0-7.6,7.465,7.465,0,0,1,2.7-2.6,8.6,8.6,0,0,1,3.9-.9,8.721,8.721,0,0,1,4,.9,6.176,6.176,0,0,1,2.7,2.6,7.958,7.958,0,0,1,1,3.8,6.971,6.971,0,0,1-1,3.8,7.465,7.465,0,0,1-2.7,2.6,8.718,8.718,0,0,1-4,.9A8.594,8.594,0,0,1,3668.4,3067.9Zm7-3.2a4.459,4.459,0,0,0,1.2-3.3,4.62,4.62,0,0,0-1.2-3.3,3.8,3.8,0,0,0-3.1-1.2,4.3,4.3,0,0,0-3.1,1.2,4.459,4.459,0,0,0-1.2,3.3,4.62,4.62,0,0,0,1.2,3.3,4.6,4.6,0,0,0,6.2,0Z" fill="#333"/>
            <path id="Tracé_52445" data-name="Tracé 52445" d="M3697.4,3048.6v20h-3.2v-1.9a4.536,4.536,0,0,1-2.1,1.5,8.082,8.082,0,0,1-2.7.5,7.509,7.509,0,0,1-3.7-.9,6.506,6.506,0,0,1-2.6-2.6,8.024,8.024,0,0,1-.9-3.9,8.306,8.306,0,0,1,.9-3.9,6.506,6.506,0,0,1,2.6-2.6,7.785,7.785,0,0,1,3.7-.9,7.082,7.082,0,0,1,2.6.5,4.261,4.261,0,0,1,2,1.5v-7.4h3.4Zm-5.4,16.8a3.859,3.859,0,0,0,1.5-1.6,5.1,5.1,0,0,0,0-4.8,4.629,4.629,0,0,0-1.5-1.6,4.033,4.033,0,0,0-2.2-.6,4.28,4.28,0,0,0-2.2.6,3.319,3.319,0,0,0-1.5,1.6,5.1,5.1,0,0,0,0,4.8,4.629,4.629,0,0,0,1.5,1.6,4.033,4.033,0,0,0,2.2.6A5.547,5.547,0,0,0,3692,3065.4Z" fill="#333"/>
            <path id="Tracé_52446" data-name="Tracé 52446" d="M3715.8,3054.2v14.4h-3.2v-1.8a6.18,6.18,0,0,1-2,1.5,5.754,5.754,0,0,1-2.6.5,6.054,6.054,0,0,1-4.5-1.6,6.521,6.521,0,0,1-1.7-4.8v-8.2h3.4v7.8a4.03,4.03,0,0,0,.9,2.9,3.379,3.379,0,0,0,2.5,1,4,4,0,0,0,2.9-1.1,4.421,4.421,0,0,0,1.1-3.2v-7.3h3.2Z" fill="#333"/>
            <path id="Tracé_52447" data-name="Tracé 52447" d="M3722.8,3067.9a7.217,7.217,0,0,1,0-12.8,8.718,8.718,0,0,1,4-.9,7.246,7.246,0,0,1,3.7.9,5.794,5.794,0,0,1,2.4,2.5l-2.6,1.5a3.318,3.318,0,0,0-1.6-1.5,4.552,4.552,0,0,0-2-.5,4.143,4.143,0,0,0-3.1,1.2,5.138,5.138,0,0,0,0,6.6,4.3,4.3,0,0,0,3.1,1.2,4.552,4.552,0,0,0,2-.5,4.5,4.5,0,0,0,1.6-1.5l2.6,1.5a6.424,6.424,0,0,1-2.4,2.5,7.507,7.507,0,0,1-3.7.9A12.388,12.388,0,0,1,3722.8,3067.9Z" fill="#333"/>
            <path id="Tracé_52448" data-name="Tracé 52448" d="M3744.8,3067.9a3.69,3.69,0,0,1-1.4.7,9.921,9.921,0,0,1-1.8.2,5.314,5.314,0,0,1-3.7-1.2,4.547,4.547,0,0,1-1.3-3.6v-6.9h-2.4v-2.7h2.4v-3.3h3.4v3.3h3.9v2.7H3740v6.9a2.545,2.545,0,0,0,.5,1.6,1.755,1.755,0,0,0,1.5.6,2.882,2.882,0,0,0,1.9-.6Z" fill="#333"/>
            <path id="Tracé_52449" data-name="Tracé 52449" d="M3747.7,3051.3a1.974,1.974,0,0,1-.6-1.4,1.677,1.677,0,0,1,.6-1.4,2.175,2.175,0,0,1,3,0,1.816,1.816,0,0,1,.6,1.4,2.034,2.034,0,0,1-.6,1.5,2.111,2.111,0,0,1-1.6.6A2.671,2.671,0,0,1,3747.7,3051.3Zm-.2,2.9h3.4v14.4h-3.4Z" fill="#333"/>
            <path id="Tracé_52450" data-name="Tracé 52450" d="M3757.9,3067.9a6.176,6.176,0,0,1-2.7-2.6,7.72,7.72,0,0,1,0-7.6,7.465,7.465,0,0,1,2.7-2.6,8.6,8.6,0,0,1,3.9-.9,8.721,8.721,0,0,1,4,.9,6.176,6.176,0,0,1,2.7,2.6,7.958,7.958,0,0,1,1,3.8,6.971,6.971,0,0,1-1,3.8,7.465,7.465,0,0,1-2.7,2.6,8.718,8.718,0,0,1-4,.9A8.3,8.3,0,0,1,3757.9,3067.9Zm7-3.2a4.459,4.459,0,0,0,1.2-3.3,4.62,4.62,0,0,0-1.2-3.3,3.8,3.8,0,0,0-3.1-1.2,4.3,4.3,0,0,0-3.1,1.2,4.459,4.459,0,0,0-1.2,3.3,4.62,4.62,0,0,0,1.2,3.3,4.6,4.6,0,0,0,6.2,0Z" fill="#333"/>
            <path id="Tracé_52451" data-name="Tracé 52451" d="M3785.3,3055.7a6.237,6.237,0,0,1,1.6,4.7v8.3h-3.4v-7.8a3.768,3.768,0,0,0-.9-2.8,3.379,3.379,0,0,0-2.5-1,4,4,0,0,0-2.9,1.1,4.421,4.421,0,0,0-1.1,3.2v7.3h-3.4v-14.4h3.2v1.9a5.108,5.108,0,0,1,2.1-1.5,8.361,8.361,0,0,1,2.9-.5A5.413,5.413,0,0,1,3785.3,3055.7Z" fill="#333"/>
            <path id="Tracé_52452" data-name="Tracé 52452" d="M3801.3,3067.9a7.217,7.217,0,0,1,0-12.8,8.718,8.718,0,0,1,4-.9,7.246,7.246,0,0,1,3.7.9,5.283,5.283,0,0,1,2.4,2.5l-2.6,1.5a3.318,3.318,0,0,0-1.6-1.5,4.552,4.552,0,0,0-2-.5,4.143,4.143,0,0,0-3.1,1.2,5.138,5.138,0,0,0,0,6.6,4.3,4.3,0,0,0,3.1,1.2,4.552,4.552,0,0,0,2-.5,4.5,4.5,0,0,0,1.6-1.5l2.6,1.5a6.424,6.424,0,0,1-2.4,2.5,7.507,7.507,0,0,1-3.7.9A12.388,12.388,0,0,1,3801.3,3067.9Z" fill="#333"/>
            <path id="Tracé_52453" data-name="Tracé 52453" d="M3824.8,3055.6a6.036,6.036,0,0,1,1.7,4.6v8.5h-3.2v-1.8a3.675,3.675,0,0,1-1.8,1.4,7.781,7.781,0,0,1-2.8.5,6.087,6.087,0,0,1-2.8-.6,5.751,5.751,0,0,1-1.9-1.5,4.395,4.395,0,0,1-.7-2.2,3.95,3.95,0,0,1,1.4-3.1,7.234,7.234,0,0,1,4.6-1.2h3.7v-.2a2.87,2.87,0,0,0-.9-2.3,4.139,4.139,0,0,0-2.7-.8,6.725,6.725,0,0,0-2.4.4,6.442,6.442,0,0,0-2,1.1l-1.3-2.5a8.448,8.448,0,0,1,2.7-1.3,12.7,12.7,0,0,1,3.4-.5A7.466,7.466,0,0,1,3824.8,3055.6Zm-3.1,10.2a2.975,2.975,0,0,0,1.4-1.7v-1.7h-3.5c-1.9,0-2.9.6-2.9,1.9a1.8,1.8,0,0,0,.7,1.5,3.147,3.147,0,0,0,2,.5A3.576,3.576,0,0,0,3821.7,3065.8Z" fill="#333"/>
            <path id="Tracé_52454" data-name="Tracé 52454" d="M3842.5,3055a6.506,6.506,0,0,1,2.6,2.6,8.9,8.9,0,0,1,0,7.8,6.506,6.506,0,0,1-2.6,2.6,7.9,7.9,0,0,1-3.8.9,5.756,5.756,0,0,1-4.6-1.9v7h-3.4v-19.7h3.2v1.9a4.536,4.536,0,0,1,2.1-1.5,7.634,7.634,0,0,1,2.7-.5A6.681,6.681,0,0,1,3842.5,3055Zm-1,9.7a4.459,4.459,0,0,0,1.2-3.3,4.62,4.62,0,0,0-1.2-3.3,4.143,4.143,0,0,0-3.1-1.2,4.28,4.28,0,0,0-2.2.6,3.859,3.859,0,0,0-1.5,1.6,5.1,5.1,0,0,0,0,4.8,4.629,4.629,0,0,0,1.5,1.6,4.033,4.033,0,0,0,2.2.6A5.552,5.552,0,0,0,3841.5,3064.7Z" fill="#333"/>
            <path id="Tracé_52455" data-name="Tracé 52455" d="M3859.5,3055.6a6.036,6.036,0,0,1,1.7,4.6v8.5H3858v-1.8a3.675,3.675,0,0,1-1.8,1.4,7.786,7.786,0,0,1-2.8.5,6.087,6.087,0,0,1-2.8-.6,5.751,5.751,0,0,1-1.9-1.5,3.408,3.408,0,0,1-.7-2.2,3.95,3.95,0,0,1,1.4-3.1,7.109,7.109,0,0,1,4.5-1.2h3.7v-.2a2.87,2.87,0,0,0-.9-2.3,4.139,4.139,0,0,0-2.7-.8,6.725,6.725,0,0,0-2.4.4,6.44,6.44,0,0,0-2,1.1l-1.3-2.5a8.448,8.448,0,0,1,2.7-1.3,12.7,12.7,0,0,1,3.4-.5Q3857.85,3054.1,3859.5,3055.6Zm-3.1,10.2a2.975,2.975,0,0,0,1.4-1.7v-1.7h-3.5c-1.9,0-2.9.6-2.9,1.9a1.8,1.8,0,0,0,.7,1.5,3.147,3.147,0,0,0,2,.5A3.437,3.437,0,0,0,3856.4,3065.8Z" fill="#333"/>
            <path id="Tracé_52456" data-name="Tracé 52456" d="M3868.2,3067.9a7.217,7.217,0,0,1,0-12.8,8.718,8.718,0,0,1,4-.9,7.246,7.246,0,0,1,3.7.9,5.794,5.794,0,0,1,2.4,2.5l-2.6,1.5a3.318,3.318,0,0,0-1.6-1.5,4.552,4.552,0,0,0-2-.5,4.143,4.143,0,0,0-3.1,1.2,5.138,5.138,0,0,0,0,6.6,4.3,4.3,0,0,0,3.1,1.2,4.552,4.552,0,0,0,2-.5,4.5,4.5,0,0,0,1.6-1.5l2.6,1.5a6.424,6.424,0,0,1-2.4,2.5,7.507,7.507,0,0,1-3.7.9A13.137,13.137,0,0,1,3868.2,3067.9Z" fill="#333"/>
            <path id="Tracé_52457" data-name="Tracé 52457" d="M3881.5,3051.3a1.974,1.974,0,0,1-.6-1.4,1.677,1.677,0,0,1,.6-1.4,2.175,2.175,0,0,1,3,0,1.816,1.816,0,0,1,.6,1.4,2.034,2.034,0,0,1-.6,1.5,2.111,2.111,0,0,1-1.6.6A2.669,2.669,0,0,1,3881.5,3051.3Zm-.2,2.9h3.4v14.4h-3.4Z" fill="#333"/>
            <path id="Tracé_52458" data-name="Tracé 52458" d="M3897.8,3067.9a3.69,3.69,0,0,1-1.4.7,5.539,5.539,0,0,1-1.8.2,5.314,5.314,0,0,1-3.7-1.2,4.547,4.547,0,0,1-1.3-3.6v-6.9h-2.4v-2.7h2.4v-3.3h3.4v3.3h3.9v2.7H3893v6.9a2.545,2.545,0,0,0,.5,1.6,1.755,1.755,0,0,0,1.5.6,2.882,2.882,0,0,0,1.9-.6Z" fill="#333"/>
            <path id="Tracé_52459" data-name="Tracé 52459" d="M3913.8,3054.2l-6.8,15.6a6.655,6.655,0,0,1-2.3,3.3,5.859,5.859,0,0,1-3.3,1,5.227,5.227,0,0,1-2.1-.4,4.043,4.043,0,0,1-1.7-1l1.3-2.5a4.126,4.126,0,0,0,1.1.7,3.079,3.079,0,0,0,1.3.3,2.456,2.456,0,0,0,1.5-.5,4.844,4.844,0,0,0,1.1-1.5l.2-.6-6.3-14.5h3.5l4.5,10.7,4.6-10.7h3.4Z" fill="#333"/>
          </g>
          <g id="Groupe_3614" data-name="Groupe 3614">
            <path id="Tracé_52460" data-name="Tracé 52460" d="M3636.9,3094.1a4.953,4.953,0,0,1-1.9-1.9,5.073,5.073,0,0,1-.7-2.8,5.3,5.3,0,0,1,.7-2.8,5.753,5.753,0,0,1,1.9-1.9,5.334,5.334,0,0,1,7.3,1.9,5.073,5.073,0,0,1,.7,2.8,5.3,5.3,0,0,1-.7,2.8,4.353,4.353,0,0,1-1.9,1.9,4.953,4.953,0,0,1-2.7.7A6.009,6.009,0,0,1,3636.9,3094.1Zm4.8-1.1a2.939,2.939,0,0,0,1.4-1.5,4.66,4.66,0,0,0,0-4.2,3.158,3.158,0,0,0-1.4-1.4,4.25,4.25,0,0,0-4,0,3.158,3.158,0,0,0-1.4,1.4,4.66,4.66,0,0,0,0,4.2,4.009,4.009,0,0,0,1.4,1.5,3.514,3.514,0,0,0,2,.5A4.551,4.551,0,0,0,3641.7,3093Z" fill="#333"/>
            <path id="Tracé_52461" data-name="Tracé 52461" d="M3650,3081.4a2.07,2.07,0,0,0-.5,1.5v1.2h3.2v1.2h-3.2v9.3h-1.4v-9.3h-1.9v-1.2h1.9v-1.3a3.375,3.375,0,0,1,.8-2.3,3.05,3.05,0,0,1,2.4-.8,5.026,5.026,0,0,1,1.2.2,1.935,1.935,0,0,1,.9.5l-.5,1.1a2.544,2.544,0,0,0-1.6-.5A1.48,1.48,0,0,0,3650,3081.4Z" fill="#333"/>
            <path id="Tracé_52462" data-name="Tracé 52462" d="M3659.9,3081.5a.966.966,0,1,1,.7.3A1.081,1.081,0,0,1,3659.9,3081.5Zm0,2.6h1.4v10.5h-1.4Z" fill="#333"/>
            <path id="Tracé_52463" data-name="Tracé 52463" d="M3673.8,3085.2a4.546,4.546,0,0,1,1.2,3.4v6.1h-1.4v-6a3.742,3.742,0,0,0-.8-2.5,2.869,2.869,0,0,0-2.3-.9,3.62,3.62,0,0,0-2.7,1,3.705,3.705,0,0,0-1,2.8v5.5h-1.4v-10.5h1.4v1.9a4.625,4.625,0,0,1,1.6-1.5,4.71,4.71,0,0,1,2.4-.5A4.07,4.07,0,0,1,3673.8,3085.2Z" fill="#333"/>
            <path id="Tracé_52464" data-name="Tracé 52464" d="M3679.2,3094.4a5.018,5.018,0,0,1-1.8-.9l.6-1.1a8.7,8.7,0,0,0,1.7.9,7.614,7.614,0,0,0,2.1.3,3.577,3.577,0,0,0,2.1-.5,1.357,1.357,0,0,0,.7-1.3.975.975,0,0,0-.4-.9,3.133,3.133,0,0,0-1-.5q-.6-.15-1.5-.3c-.9-.2-1.5-.3-2.1-.5a2.54,2.54,0,0,1-1.3-.9,2.353,2.353,0,0,1-.6-1.7,2.794,2.794,0,0,1,1.1-2.2,4.766,4.766,0,0,1,3.1-.8,6.45,6.45,0,0,1,2,.3,6.686,6.686,0,0,1,1.7.7l-.6,1.1a5.382,5.382,0,0,0-3.1-.9,4.064,4.064,0,0,0-2.1.5,1.357,1.357,0,0,0-.7,1.3,1.285,1.285,0,0,0,.4,1,3.133,3.133,0,0,0,1,.5c.4.1.9.2,1.6.4a19.263,19.263,0,0,1,2,.5,3.527,3.527,0,0,1,1.3.8,2.065,2.065,0,0,1,.5,1.6,2.655,2.655,0,0,1-1.1,2.2,5.809,5.809,0,0,1-3.2.8A20.061,20.061,0,0,1,3679.2,3094.4Z" fill="#333"/>
            <path id="Tracé_52465" data-name="Tracé 52465" d="M3698.1,3084.1v10.5h-1.4v-1.9a5.351,5.351,0,0,1-1.5,1.5,4.194,4.194,0,0,1-2.2.5,4.859,4.859,0,0,1-3.3-1.1,4.4,4.4,0,0,1-1.2-3.4v-6.1h1.4v6a3.742,3.742,0,0,0,.8,2.5,2.869,2.869,0,0,0,2.3.9,3.253,3.253,0,0,0,2.6-1,4.139,4.139,0,0,0,1-2.8v-5.5h1.5Z" fill="#333"/>
            <path id="Tracé_52466" data-name="Tracé 52466" d="M3702.1,3079.8h1.4v14.8h-1.4Z" fill="#333"/>
            <path id="Tracé_52467" data-name="Tracé 52467" d="M3714.3,3085.1a4.168,4.168,0,0,1,1.1,3.1v6.5H3714v-1.6a3.533,3.533,0,0,1-1.4,1.3,5.09,5.09,0,0,1-2.2.5,4.655,4.655,0,0,1-2.8-.8,2.92,2.92,0,0,1,0-4.4,5.014,5.014,0,0,1,3.1-.8h3.3v-.6a2.865,2.865,0,0,0-.8-2.1,2.917,2.917,0,0,0-2.2-.7,5.823,5.823,0,0,0-1.9.3,5.072,5.072,0,0,0-1.6.9l-.6-1.1a5.928,5.928,0,0,1,1.9-1.1,8.6,8.6,0,0,1,2.4-.4A3.9,3.9,0,0,1,3714.3,3085.1Zm-1.6,8a3.434,3.434,0,0,0,1.3-1.6v-1.7h-3.3c-1.8,0-2.7.6-2.7,1.9a1.8,1.8,0,0,0,.7,1.5,2.981,2.981,0,0,0,2,.5A6.637,6.637,0,0,0,3712.7,3093.1Z" fill="#333"/>
            <path id="Tracé_52468" data-name="Tracé 52468" d="M3724.8,3094a3.133,3.133,0,0,1-1,.5,5.014,5.014,0,0,1-1.2.2,3.375,3.375,0,0,1-2.3-.8,3.2,3.2,0,0,1-.8-2.3v-6.4h-1.9V3084h1.9v-2.3h1.4v2.3h3.2v1.2h-3.2v6.3a1.736,1.736,0,0,0,1.9,1.9,2.765,2.765,0,0,0,.9-.1,1.612,1.612,0,0,0,.7-.4Z" fill="#333"/>
            <path id="Tracé_52469" data-name="Tracé 52469" d="M3736.2,3089.8h-8.8a3.872,3.872,0,0,0,1.3,2.7,4.1,4.1,0,0,0,2.9,1,4.846,4.846,0,0,0,1.8-.3,4.507,4.507,0,0,0,1.4-1l.8.9a4,4,0,0,1-1.8,1.3,6.2,6.2,0,0,1-2.3.4,5.663,5.663,0,0,1-2.9-.7,4.355,4.355,0,0,1-1.9-1.9,5.073,5.073,0,0,1-.7-2.8,5.3,5.3,0,0,1,.7-2.8,5.462,5.462,0,0,1,1.8-1.9,4.845,4.845,0,0,1,2.6-.7,4.618,4.618,0,0,1,2.6.7,4.691,4.691,0,0,1,1.8,1.9,6.1,6.1,0,0,1,.7,2.8Zm-7.7-3.6a3.721,3.721,0,0,0-1.2,2.5h7.5a3.722,3.722,0,0,0-1.2-2.5,3.8,3.8,0,0,0-2.6-1A4.591,4.591,0,0,0,3728.5,3086.2Z" fill="#333"/>
            <path id="Tracé_52470" data-name="Tracé 52470" d="M3748.7,3079.8v14.8h-1.4v-2.1a4.365,4.365,0,0,1-1.7,1.6,4.752,4.752,0,0,1-2.4.6,4.953,4.953,0,0,1-2.7-.7,5.753,5.753,0,0,1-1.9-1.9,5.951,5.951,0,0,1,0-5.6,5.753,5.753,0,0,1,1.9-1.9,6.009,6.009,0,0,1,2.7-.7,5.555,5.555,0,0,1,2.3.5,4.361,4.361,0,0,1,1.7,1.6v-6.3h1.5Zm-3.3,13.2a2.939,2.939,0,0,0,1.4-1.5,4.66,4.66,0,0,0,0-4.2,3.158,3.158,0,0,0-1.4-1.4,4.25,4.25,0,0,0-4,0,3.158,3.158,0,0,0-1.4,1.4,4.66,4.66,0,0,0,0,4.2,4.009,4.009,0,0,0,1.4,1.5,3.514,3.514,0,0,0,2,.5A4.55,4.55,0,0,0,3745.4,3093Z" fill="#333"/>
            <path id="Tracé_52471" data-name="Tracé 52471" d="M3759.5,3094.1a4.953,4.953,0,0,1-1.9-1.9,5.073,5.073,0,0,1-.7-2.8,5.3,5.3,0,0,1,.7-2.8,5.753,5.753,0,0,1,1.9-1.9,5.3,5.3,0,0,1,2.8-.7,6.041,6.041,0,0,1,2.4.5,4.361,4.361,0,0,1,1.7,1.6l-1.1.7a3.746,3.746,0,0,0-1.3-1.2,3.286,3.286,0,0,0-1.7-.4,4.228,4.228,0,0,0-2,.5,3.158,3.158,0,0,0-1.4,1.4,4.66,4.66,0,0,0,0,4.2,3.158,3.158,0,0,0,1.4,1.4,4.552,4.552,0,0,0,2,.5,3.288,3.288,0,0,0,1.7-.4,3,3,0,0,0,1.3-1.2l1.1.7a4.365,4.365,0,0,1-1.7,1.6,4.71,4.71,0,0,1-2.4.5A3.759,3.759,0,0,1,3759.5,3094.1Z" fill="#333"/>
            <path id="Tracé_52472" data-name="Tracé 52472" d="M3770.5,3094.1a4.953,4.953,0,0,1-1.9-1.9,5.073,5.073,0,0,1-.7-2.8,5.3,5.3,0,0,1,.7-2.8,5.753,5.753,0,0,1,1.9-1.9,5.334,5.334,0,0,1,7.3,1.9,5.073,5.073,0,0,1,.7,2.8,5.3,5.3,0,0,1-.7,2.8,4.353,4.353,0,0,1-1.9,1.9,4.953,4.953,0,0,1-2.7.7A6.009,6.009,0,0,1,3770.5,3094.1Zm4.8-1.1a2.939,2.939,0,0,0,1.4-1.5,4.66,4.66,0,0,0,0-4.2,3.158,3.158,0,0,0-1.4-1.4,4.25,4.25,0,0,0-4,0,3.158,3.158,0,0,0-1.4,1.4,4.66,4.66,0,0,0,0,4.2,4.009,4.009,0,0,0,1.4,1.5,3.514,3.514,0,0,0,2,.5A4.552,4.552,0,0,0,3775.3,3093Z" fill="#333"/>
            <path id="Tracé_52473" data-name="Tracé 52473" d="M3789.6,3084.7a4.953,4.953,0,0,1,1.9,1.9,5.951,5.951,0,0,1,0,5.6,5.753,5.753,0,0,1-1.9,1.9,6.009,6.009,0,0,1-2.7.7,5.555,5.555,0,0,1-2.3-.5,3.747,3.747,0,0,1-1.7-1.6v5.9h-1.4v-14.4h1.4v2.1a4.365,4.365,0,0,1,1.7-1.6,5.5,5.5,0,0,1,5,0Zm-.8,8.3a2.939,2.939,0,0,0,1.4-1.5,4.66,4.66,0,0,0,0-4.2,4.009,4.009,0,0,0-1.4-1.5,4.25,4.25,0,0,0-4,0,2.939,2.939,0,0,0-1.4,1.5,4.66,4.66,0,0,0,0,4.2,4.009,4.009,0,0,0,1.4,1.5,3.514,3.514,0,0,0,2,.5A4.228,4.228,0,0,0,3788.8,3093Z" fill="#333"/>
            <path id="Tracé_52474" data-name="Tracé 52474" d="M3803.2,3084.7a4.953,4.953,0,0,1,1.9,1.9,5.951,5.951,0,0,1,0,5.6,5.753,5.753,0,0,1-1.9,1.9,6.009,6.009,0,0,1-2.7.7,5.555,5.555,0,0,1-2.3-.5,3.747,3.747,0,0,1-1.7-1.6v5.9h-1.4v-14.4h1.4v2.1a4.365,4.365,0,0,1,1.7-1.6,5.5,5.5,0,0,1,5,0Zm-.8,8.3a2.939,2.939,0,0,0,1.4-1.5,4.66,4.66,0,0,0,0-4.2,4.009,4.009,0,0,0-1.4-1.5,3.514,3.514,0,0,0-2-.5,4.552,4.552,0,0,0-2,.5,2.939,2.939,0,0,0-1.4,1.5,4.66,4.66,0,0,0,0,4.2,4.009,4.009,0,0,0,1.4,1.5,3.514,3.514,0,0,0,2,.5A4.55,4.55,0,0,0,3802.4,3093Z" fill="#333"/>
            <path id="Tracé_52475" data-name="Tracé 52475" d="M3817.8,3089.8H3809a3.872,3.872,0,0,0,1.3,2.7,4.1,4.1,0,0,0,2.9,1,4.846,4.846,0,0,0,1.8-.3,4.507,4.507,0,0,0,1.4-1l.8.9a4,4,0,0,1-1.8,1.3,6.2,6.2,0,0,1-2.3.4,5.663,5.663,0,0,1-2.9-.7,6.062,6.062,0,0,1-2-1.9,5.073,5.073,0,0,1-.7-2.8,5.3,5.3,0,0,1,.7-2.8,5.462,5.462,0,0,1,1.8-1.9,4.845,4.845,0,0,1,2.6-.7,4.618,4.618,0,0,1,2.6.7,4.691,4.691,0,0,1,1.8,1.9,6.1,6.1,0,0,1,.7,2.8Zm-7.6-3.6a3.721,3.721,0,0,0-1.2,2.5h7.5a3.722,3.722,0,0,0-1.2-2.5,3.8,3.8,0,0,0-2.6-1A4.05,4.05,0,0,0,3810.2,3086.2Z" fill="#333"/>
            <path id="Tracé_52476" data-name="Tracé 52476" d="M3823.6,3084.6a4.71,4.71,0,0,1,2.4-.5v1.4h-.3a3.253,3.253,0,0,0-2.6,1,4.2,4.2,0,0,0-.9,2.9v5.4h-1.4v-10.5h1.4v2.1A2.408,2.408,0,0,1,3823.6,3084.6Z" fill="#333"/>
            <path id="Tracé_52477" data-name="Tracé 52477" d="M3839.5,3094a3.133,3.133,0,0,1-1,.5,5.014,5.014,0,0,1-1.2.2,3.375,3.375,0,0,1-2.3-.8,2.824,2.824,0,0,1-.8-2.3v-6.4h-1.9V3084h1.9v-2.3h1.4v2.3h3.2v1.2h-3.2v6.3a1.736,1.736,0,0,0,1.9,1.9,2.765,2.765,0,0,0,.9-.1,1.612,1.612,0,0,0,.7-.4Z" fill="#333"/>
            <path id="Tracé_52478" data-name="Tracé 52478" d="M3851.6,3084.1v10.5h-1.4v-1.9a5.351,5.351,0,0,1-1.5,1.5,4.194,4.194,0,0,1-2.2.5,4.859,4.859,0,0,1-3.3-1.1,4.4,4.4,0,0,1-1.2-3.4v-6.1h1.4v6a3.742,3.742,0,0,0,.8,2.5,2.869,2.869,0,0,0,2.3.9,3.253,3.253,0,0,0,2.6-1,4.139,4.139,0,0,0,1-2.8v-5.5h1.5Z" fill="#333"/>
            <path id="Tracé_52479" data-name="Tracé 52479" d="M3863.6,3084.7a4.953,4.953,0,0,1,1.9,1.9,5.951,5.951,0,0,1,0,5.6,5.753,5.753,0,0,1-1.9,1.9,4.953,4.953,0,0,1-2.7.7,4.749,4.749,0,0,1-2.4-.6,4.361,4.361,0,0,1-1.7-1.6v2.1h-1.4v-14.8h1.4v6.3a4.365,4.365,0,0,1,1.7-1.6,4.559,4.559,0,0,1,2.3-.5A5.05,5.05,0,0,1,3863.6,3084.7Zm-.7,8.3a2.939,2.939,0,0,0,1.4-1.5,4.66,4.66,0,0,0,0-4.2,3.158,3.158,0,0,0-1.4-1.4,4.25,4.25,0,0,0-4,0,3.158,3.158,0,0,0-1.4,1.4,4.66,4.66,0,0,0,0,4.2,4.009,4.009,0,0,0,1.4,1.5,3.514,3.514,0,0,0,2,.5A4.55,4.55,0,0,0,3862.9,3093Z" fill="#333"/>
            <path id="Tracé_52480" data-name="Tracé 52480" d="M3878.3,3089.8h-8.8a3.872,3.872,0,0,0,1.3,2.7,4.1,4.1,0,0,0,2.9,1,4.846,4.846,0,0,0,1.8-.3,4.507,4.507,0,0,0,1.4-1l.8.9a4,4,0,0,1-1.8,1.3,5.866,5.866,0,0,1-2.3.4,5.663,5.663,0,0,1-2.9-.7,4.355,4.355,0,0,1-1.9-1.9,5.073,5.073,0,0,1-.7-2.8,5.3,5.3,0,0,1,.7-2.8,5.462,5.462,0,0,1,1.8-1.9,5.179,5.179,0,0,1,5.2,0,4.691,4.691,0,0,1,1.8,1.9,6.1,6.1,0,0,1,.7,2.8Zm-7.7-3.6a3.721,3.721,0,0,0-1.2,2.5h7.5a3.722,3.722,0,0,0-1.2-2.5,3.8,3.8,0,0,0-2.6-1A4.59,4.59,0,0,0,3870.6,3086.2Z" fill="#333"/>
            <path id="Tracé_52481" data-name="Tracé 52481" d="M3894.5,3084.7a4.953,4.953,0,0,1,1.9,1.9,5.951,5.951,0,0,1,0,5.6,5.753,5.753,0,0,1-1.9,1.9,6.009,6.009,0,0,1-2.7.7,5.555,5.555,0,0,1-2.3-.5,3.747,3.747,0,0,1-1.7-1.6v5.9h-1.4v-14.4h1.4v2.1a4.365,4.365,0,0,1,1.7-1.6,5.5,5.5,0,0,1,5,0Zm-.8,8.3a2.939,2.939,0,0,0,1.4-1.5,4.66,4.66,0,0,0,0-4.2,4.009,4.009,0,0,0-1.4-1.5,4.25,4.25,0,0,0-4,0,2.939,2.939,0,0,0-1.4,1.5,4.66,4.66,0,0,0,0,4.2,4.009,4.009,0,0,0,1.4,1.5,3.514,3.514,0,0,0,2,.5A4.227,4.227,0,0,0,3893.7,3093Z" fill="#333"/>
            <path id="Tracé_52482" data-name="Tracé 52482" d="M3909.1,3089.8h-8.8a3.872,3.872,0,0,0,1.3,2.7,4.1,4.1,0,0,0,2.9,1,4.846,4.846,0,0,0,1.8-.3,4.507,4.507,0,0,0,1.4-1l.8.9a4,4,0,0,1-1.8,1.3,6.2,6.2,0,0,1-2.3.4,5.663,5.663,0,0,1-2.9-.7,4.953,4.953,0,0,1-1.9-1.9,6.1,6.1,0,0,1-.7-2.8,5.3,5.3,0,0,1,.7-2.8,5.462,5.462,0,0,1,1.8-1.9,4.845,4.845,0,0,1,2.6-.7,4.618,4.618,0,0,1,2.6.7,4.691,4.691,0,0,1,1.8,1.9,6.1,6.1,0,0,1,.7,2.8Zm-7.6-3.6a3.721,3.721,0,0,0-1.2,2.5h7.5a3.722,3.722,0,0,0-1.2-2.5,3.8,3.8,0,0,0-2.6-1A4.3,4.3,0,0,0,3901.5,3086.2Z" fill="#333"/>
            <path id="Tracé_52483" data-name="Tracé 52483" d="M3914.9,3084.6a4.87,4.87,0,0,1,2.5-.5v1.4h-.3a3.253,3.253,0,0,0-2.6,1,4.2,4.2,0,0,0-.9,2.9v5.4h-1.4v-10.5h1.4v2.1A2.544,2.544,0,0,1,3914.9,3084.6Z" fill="#333"/>
            <path id="Tracé_52484" data-name="Tracé 52484" d="M3934.2,3084.1l-5.3,11.8a4.387,4.387,0,0,1-1.5,2.1,3.38,3.38,0,0,1-2,.6,5.908,5.908,0,0,1-1.4-.2,2.588,2.588,0,0,1-1.1-.7l.7-1.1a2.732,2.732,0,0,0,1.9.8,1.6,1.6,0,0,0,1.2-.4,3.081,3.081,0,0,0,.9-1.4l.5-1-4.7-10.5h1.5l4,8.9,4-8.9h1.3Z" fill="#333"/>
            <path id="Tracé_52485" data-name="Tracé 52485" d="M3945,3089.8h-8.8a3.872,3.872,0,0,0,1.3,2.7,4.1,4.1,0,0,0,2.9,1,4.846,4.846,0,0,0,1.8-.3,4.507,4.507,0,0,0,1.4-1l.8.9a4.629,4.629,0,0,1-1.8,1.3,5.866,5.866,0,0,1-2.3.4,5.663,5.663,0,0,1-2.9-.7,5.237,5.237,0,0,1-2-1.9,5.072,5.072,0,0,1-.7-2.8,5.3,5.3,0,0,1,.7-2.8,5.462,5.462,0,0,1,1.8-1.9,5.179,5.179,0,0,1,5.2,0,4.691,4.691,0,0,1,1.8,1.9,6.1,6.1,0,0,1,.7,2.8Zm-7.6-3.6a3.721,3.721,0,0,0-1.2,2.5h7.5a3.722,3.722,0,0,0-1.2-2.5,3.8,3.8,0,0,0-2.6-1A4.306,4.306,0,0,0,3937.4,3086.2Z" fill="#333"/>
            <path id="Tracé_52486" data-name="Tracé 52486" d="M3954.5,3085.1a4.168,4.168,0,0,1,1.1,3.1v6.5h-1.4v-1.6a3.533,3.533,0,0,1-1.4,1.3,5.09,5.09,0,0,1-2.2.5,4.655,4.655,0,0,1-2.8-.8,2.92,2.92,0,0,1,0-4.4,4.6,4.6,0,0,1,3.1-.8h3.3v-.6a2.865,2.865,0,0,0-.8-2.1,2.917,2.917,0,0,0-2.2-.7,5.823,5.823,0,0,0-1.9.3,5.072,5.072,0,0,0-1.6.9l-.6-1.1a5.928,5.928,0,0,1,1.9-1.1,8.6,8.6,0,0,1,2.4-.4A4.027,4.027,0,0,1,3954.5,3085.1Zm-1.6,8a3.434,3.434,0,0,0,1.3-1.6v-1.7h-3.3c-1.8,0-2.7.6-2.7,1.9a1.8,1.8,0,0,0,.7,1.5,2.981,2.981,0,0,0,2,.5A6.635,6.635,0,0,0,3952.9,3093.1Z" fill="#333"/>
            <path id="Tracé_52487" data-name="Tracé 52487" d="M3962.3,3084.6a4.87,4.87,0,0,1,2.5-.5v1.4h-.3a3.253,3.253,0,0,0-2.6,1,4.2,4.2,0,0,0-.9,2.9v5.4h-1.4v-10.5h1.4v2.1A2.115,2.115,0,0,1,3962.3,3084.6Z" fill="#333"/>
          </g>
          <g id="Groupe_3615" data-name="Groupe 3615">
            <path id="Tracé_52488" data-name="Tracé 52488" d="M3934.3,3018.3a4.626,4.626,0,0,1,2.1,1.8,5.557,5.557,0,0,1,0,5.4,4.626,4.626,0,0,1-2.1,1.8,7.945,7.945,0,0,1-3.2.6h-2.8v3.9h-3.2v-14h6.1A5.379,5.379,0,0,1,3934.3,3018.3Zm-1.2,6.2a2.425,2.425,0,0,0,0-3.6,3.4,3.4,0,0,0-2.2-.6h-2.6v4.9h2.6A4.08,4.08,0,0,0,3933.1,3024.5Z" fill="#070404"/>
            <path id="Tracé_52489" data-name="Tracé 52489" d="M3941.4,3031.1a5.065,5.065,0,0,1-2.1-2,5.468,5.468,0,0,1-.8-2.9,5.736,5.736,0,0,1,.8-2.9,5.063,5.063,0,0,1,2.1-2,6.172,6.172,0,0,1,3.1-.7,6.039,6.039,0,0,1,3,.7,5.2,5.2,0,0,1,1.9,2l-2.4,1.3a2.712,2.712,0,0,0-2.4-1.5,2.792,2.792,0,0,0-2,.8,3.113,3.113,0,0,0-.8,2.2,3.294,3.294,0,0,0,.8,2.2,2.439,2.439,0,0,0,2,.8,2.508,2.508,0,0,0,2.4-1.5l2.4,1.3a4.1,4.1,0,0,1-1.9,2,5.559,5.559,0,0,1-3,.7A4.581,4.581,0,0,1,3941.4,3031.1Z" fill="#070404"/>
            <path id="Tracé_52490" data-name="Tracé 52490" d="M3952.1,3031.5a6.365,6.365,0,0,1-2-.8l1-2.2a8.863,8.863,0,0,0,1.7.8,6.449,6.449,0,0,0,2,.3c1.3,0,2-.3,2-1,0-.3-.2-.5-.5-.7a13.876,13.876,0,0,0-1.7-.3,10.3,10.3,0,0,1-2.2-.5,3.765,3.765,0,0,1-1.5-.9,2.708,2.708,0,0,1-.6-1.9,2.791,2.791,0,0,1,.6-1.8,4.344,4.344,0,0,1,1.7-1.2,7.317,7.317,0,0,1,2.7-.4,9.082,9.082,0,0,1,2.3.3,6.894,6.894,0,0,1,1.9.7l-1,2.2a6.5,6.5,0,0,0-3.1-.8,2.811,2.811,0,0,0-1.5.3c-.3.2-.5.4-.5.7a.752.752,0,0,0,.5.7,10.774,10.774,0,0,0,1.7.4,10.3,10.3,0,0,1,2.2.5,4.619,4.619,0,0,1,1.5.9,2.61,2.61,0,0,1,.6,1.8,2.791,2.791,0,0,1-.6,1.8,4.067,4.067,0,0,1-1.8,1.2,7.662,7.662,0,0,1-2.7.4C3953.8,3031.8,3952.9,3031.7,3952.1,3031.5Z" fill="#070404"/>
          </g>
        </g>
      </g>
    </g>
    <text id="_356K" data-name="+356K" transform="translate(-17771 -12434)" font-size="94" font-family="Menlo-Bold, Menlo" font-weight="700"><tspan x="0" y="0">+356K</tspan></text>
  </g>
</svg>
